<?xml version="1.0" encoding="utf-8"?>
<!-- Generator: Adobe Illustrator 19.0.0, SVG Export Plug-In . SVG Version: 6.00 Build 0)  -->
<svg version="1.1" id="Layer_1" xmlns="http://www.w3.org/2000/svg" xmlns:xlink="http://www.w3.org/1999/xlink" x="0px" y="0px"
	 viewBox="0 0 512 512"  style="enable-background:new 0 0 512 512;" xml:space="preserve">
<g id="XMLID_1_">
	<path fill="#4542f5" id="XMLID_5_" d="M484.6,101.5l-54.9,55.9c-0.9,0.9-2.8,1.9-4.7,0.9L368.2,148c-1.9,0-3.7-1.9-3.7-3.7l-10.2-56.8
		c0-1.9,0-2.8,0.9-4.7l54.9-54.9c4.7-4.7,3.7-11.2-0.9-14.9c-12.1-9.3-27-13-39.1-13c-0.9,0-1.9,0-2.8,0
		c-15.8,0.9-48.4,9.3-73.5,36.3c-25.1,26.1-50.3,74.5-27.9,128.5c2.8,6.5,5.6,14.9-3.7,24.2c-9.3,9.3-245.8,231.8-245.8,231.8
		c-22.3,18.6-20.5,54,0,75.4C26.6,506.4,40.5,512,54.5,512s27-5.6,36.3-15.8c0,0,220.6-235.5,231.8-245.8c4.7-4.7,9.3-6.5,14-6.5
		c3.7,0,7.4,1.9,10.2,2.8c12.1,6.5,26.1,9.3,40,9.3c32.6,0,68-14.9,88.4-36.3c29.8-29.8,35.4-58.6,36.3-73.5
		c0.9-12.1-2.8-27.9-13-41.9C495.8,97.7,488.3,96.8,484.6,101.5L484.6,101.5z M67.5,468.2c-6.5,6.5-17.7,6.5-24.2,0
		c-6.5-6.5-6.5-17.7,0-24.2c6.5-6.5,17.7-6.5,24.2,0C74.1,450.6,74.1,461.7,67.5,468.2z"/>
</g>
</svg>
